<?xml version="1.0" encoding="utf-8"?>
<!-- Generator: Adobe Illustrator 23.0.2, SVG Export Plug-In . SVG Version: 6.00 Build 0)  -->
<svg version="1.1" id="Calque_1" xmlns="http://www.w3.org/2000/svg" xmlns:xlink="http://www.w3.org/1999/xlink" x="0px" y="0px"
	 viewBox="0 0 380.21 389.83" style="enable-background:new 0 0 380.21 389.83;" xml:space="preserve">
<style type="text/css">
	.st0{fill:#E30613;}
	.st1{fill:#EFD830;}
	.st2{fill:#EFBA95;}
	.st3{fill:#D8AA8B;}
	.st4{fill:#FAC5A0;}
	.st5{fill:#8C705E;}
	.st6{fill:none;stroke:#B41917;stroke-miterlimit:10;}
	.st7{fill:none;stroke:#B41917;stroke-width:3;stroke-miterlimit:10;}
</style>
<g>
	<g>
		<path class="st0" d="M346.37,238.3c-0.57,0-5.16,0-5.16,0s-3.19-1.76-0.67-4.02c16.88-15.07,17.33-36.04,17.88-38.73
			c-3.16,4.4-23.9,24.76-24.57,25.24s-8.7,3.25-5.64-4.78s14.34-11.28,13.1-11.76c-1.24-0.48-5.45,0-5.45,0s-3.25-3.54,0.1-7.91
			c25.05-22.25,10.04-32.25,10.04-32.25c-7.84,26.77-16.35,13.58-16.35,13.58s-2.2-3.82,9.47-22.66
			c11.67-18.84,4.97-27.73,4.97-27.73c-1.24,13.48-10.61,9.37-10.61,9.37s-1.34,17.98-6.79,12.33c0.57-17.31-7.08-16.16-7.08-16.16
			s0.57,10.52-12.14-2.96c2.39-8.22-2.49-15.59-2.49-15.59s1.53,9.18-2.1,8.8c-8.89-10.14-5.45-22.47-5.45-22.47
			s-20.18-0.38-15.87-12.33c10.59-8.86,5.26-23.04,5.26-22.28s-2.1,5.07-2.1,5.07s-8.03,11-8.41,2.68c3.25-8.8,0.1-13.48,0.1-13.48
			s-4.21-14.44-3.35-19.41c0.54-3.11,3.85-10.84,6.26-16.09c-1.49,1.59-3.85,3.35-7.59,5c-10.23,4.49-11.38,13.29-11.38,13.29
			s-2.96-5.64,1.34-19.12c-15.2,20.84-7.79,27.35-7.79,27.35c0.29,0.93,3.16,5.45,3.44,10.18c0.29,4.73,1.15,3.73-6.02,2.01
			c-7.17-1.72-7.6-10.52-9.04-13.2c-1,2.58,0.86,4.45,2.87,16.49c2.01,12.05-3.72,15.95-5.74,13.63c-1.99-2.3-0.51-6.09,0.01-7.19
			c0,0.01,0,0.01-0.01,0.01c-1.43,2.63-3.01-0.29-3.68,4.3c-0.67,4.59-2.05,0.43-2.05,0.43c-1.43-1.43,0.67-6.74,0.86-12.91
			c-2.87,2.87-6.31,13.2-6.31,13.2s-3.26,4-3.44-1.15c0-14.89,9.75-26.92,10.84-28.08c-1.09,0.37-8.55-19.25-8.55-19.25
			s0,4.88,0,8.32c0,3.44-1.72,6.88-1.72,8.32s-13.2,11.47-13.2,11.47V50.7c-2.87,4.3-9.47,5.74-8.89,4.02
			c0.57-1.72,1.15-12.05,1.15-12.05s-8.89,13.2-14.34,12.05s1.43-16.64,1.43-16.64s-9.41,6.61-13.2,16.06
			C174.26,70.49,180,71.35,180,71.35s-3.73,0.57-4.88-0.86s-3.73,0-3.73,0v6.31c0,0-4.88,5.74-7.17,4.3
			c-2.29-1.43,2.01-8.61,2.01-8.61c-2.44,1.86-6.31-0.72-6.31-0.72s2.24-17.5,5.02-23.24c-4.3,0-19.08,18.79-20.94,27.68
			c-1.86,8.89-5.45,4.59-5.45,4.59s-0.57-4.45,0.86-11.19c-5.74,13.2-10.9,9.9-10.9,9.9s-2.58-8.75-2.01-17.35
			c-9.32,10.47-7.31,13.91-3.73,26.39c3.59,12.48-4.3,11.19-4.3,11.19s-1.58-4.88-5.02-7.6c-3.44-2.73-0.43-15.2-1-13.48
			c-0.57,1.72-3.44,1.58-7.75,10.47c-0.57,12.91-3.16,15.63-5.02,15.49c-1.86-0.14-0.43-21.8-1.29-21.51
			c-0.86,0.29-6.17,9.61-9.04,17.64s-1,20.37,8.32,34.71c2.29,25.1-7.6,20.37-7.6,20.37s-1.15,0.57-0.57-6.31
			s-5.02-16.06-4.02-13.34s-4.73,8.61-5.74,8.18c-1-0.43-1.43-9.47-1.43-9.47c0.86-3.73-4.16-17.21-11.91-21.08
			c7.17,15.35,4.3,35.43,4.3,35.43s-3.87-5.45-5.88-5.45c5.02,16.06-0.86,14.2-0.86,14.2s-4.3-6.31-7.31-11.19
			c-2.29,23.67,15.06,39.44,15.06,41.59c0,2.15-10.18-0.14-9.32,0.29c0.86,0.43,0.43,1.58,0.72,3.06c0.29,1.48-9.9-1.62-11.47-1.62
			c-1.58,0-8.89-3.59-13.63-8.46c0.29,6.31,8.46,9.47,10.18,11.33c1.72,1.86-0.86,2.58-0.86,2.58s-13.85-1.6-20.8-16.49
			c3.01,17.64,14.63,19.65,16.78,19.65c2.15,0,18.65,5.31,20.51,11.76c1.86,6.45-11.62,4.45-11.62,4.45s5.45,7.03,26.39,9.18
			c20.94,2.15,13.2,9.9,13.2,9.9s-8.89-1.15-13.2,1.43c6.74,0.72,21.94,7.17,22.52,9.18c0.57,2.01-1,4.16-1,4.16
			c3.59,3.87,0.43,6.6,0.43,6.6s-5.16,0.89-6.74,2.15c16.21,14.06,4.02,17.35,4.02,17.35s-4.59,3.87-16.78-18.62
			c-2.73,36.89,30.84,42.42,30.84,42.42s21.46-14.29,28.34-12.57c-2.01,11.19-9.84,55.03-0.52,54.31
			c3.01-24.67,20.51-22.66,20.51-22.66l-0.72,4.73c2.87-1.43,10.47-1.29,10.47-1.29s1.72,11.9-8.61,11.76
			c-18.94-0.26-12.1,30.26-9.04,30.98c1.29-18.93-1.86-21.66,16.06-20.94c17.93,0.72,15.35-16.21,15.35-16.21s4.16-13.48,12.05-10.9
			c1.43,15.06,9.04,12.76,11.62,12.76s10.47-6.6,10.47-6.6s-1.97,4.01-0.43,6.6c4.73-2.01,10.47-0.14,10.47-0.14
			s10.61,4.59,13.63,21.08c3.59-7.89,0.14-16.21,0.14-16.21s-3.16-2.58,3.87-0.14c9.35,3.25,11.04,22.23,11.04,22.23
			s0.29-7.75-0.29-17.35c12.48-0.14,26.82-6.02,26.82-6.02c-32.13-7.46-26.96-16.49-26.96-16.49s8.89,4.73,28.4,5.02
			c-25.24-5.74-23.24-15.78-22.52-14.49c0.72,1.29,4.16,1.14,6.6,1c5.16-0.29,7.6-12.76,7.6-12.76s-15.25,2.73-7.03-8.18
			c12.76-0.57,15.35,7.03,15.35,5.88c0-1.15-0.29-4.02,4.16-4.59c4.45-0.57,6.6,0.86,6.6,0.86s-0.72-2.87-0.14-2.87
			c0.57,0,5.74,0,14.2,2.87c0.29-2.87-16.78-8.03-17.78-8.89c-1-0.86,0-4.59,0-4.59s11.76,0.89,19.79-1.15
			c-7.46-3.44-0.43-8.46-0.43-8.46s23.95-1.29,25.1-1.29s4.02-4.02,4.02-4.02s-12.19-1.72-15.35-2.01c-3.16-0.29-11.76-8.46-1-10.04
			s21.51-5.02,22.09-5.02C346.37,242.89,346.95,238.3,346.37,238.3z"/>
	</g>
</g>
<path class="st0" d="M302.38,203.49"/>
<path class="st1" d="M198.14,239.63c0,0,6.98,18.62,12.36,17.82c5.39-0.8,10.19-15.59,10.19-15.59s-4.09,14.32,0.17,16.18
	c4.25,1.86,14.73-10.45,14.73-10.45s-8.68,11.68-7.6,14.15c1.08,2.47,20.41-6.89,20.41-6.89s-12.61,6.89-11.1,10.88
	s22.6,1.29,22.6,1.29s-17.49,2.52-24.05,8.02c-6.56,5.49,9.97,8.65,9.97,8.65s-14.59-2.92-19.55-0.6
	c-4.96,2.32,4.23,12.86,4.23,12.86s-11.08-9.09-13.84-8.05c-2.76,1.05-4.17,14.66-4.17,14.66s-0.49-9.54-5.43-8.77
	c-4.95,0.76-19.97,20.01-19.97,20.01s11.52-15.7,8.67-20.65c-2.85-4.95-18.52,5.45-18.52,5.45s14.04-10.45,12.13-12.72
	c-1.91-2.26-27.37,3.58-27.37,3.58s21.9-7.69,23.54-11.82c1.65-4.12-13.13-5.88-13.13-5.88s15.63-0.47,20.15-2.75
	s-7.28-10.91-7.28-10.91s11.72,3.71,14.67,2.58C202.92,259.52,198.14,239.63,198.14,239.63z"/>
<path class="st2" d="M230.85,268.72c0,0,8.07,2.27,6.49,7.8c-3.13,10.93-10.68,14.13-10.51,12.26L230.85,268.72z"/>
<path class="st2" d="M199.45,326.7l0.14-46.03l25.51,0.36l-1.12,46.81c0,0-3.14,0.11-7.11,1.17c-1.23-1.79-0.17-3.25,0.29-4.85
	c-4.44,2.43-8.24,4.76-9.39,4.69C206.83,328.78,201.74,329.85,199.45,326.7z"/>
<path class="st3" d="M231.85,268.72l-11.61,10.5c0,0-4.16,11.04,5.17,12.33C241.33,277.79,231.85,268.72,231.85,268.72"/>
<path class="st2" d="M232.7,271.73c3.02,9.36-4.21,20.07-16.15,23.91c-11.93,3.85-24.05-0.62-27.07-9.98
	c-0.67-2.07-0.34-4.46-0.85-6.64c-1.35-5.76,2.1-9.15,5.52-9.8c-0.05-6.4,7.21-9.69,11.75-5.95c0.23,0.19,0.53,0.23,0.77,0.37
	c3.29-6.07,9.41-5.97,14.87-0.67C230.1,259.01,231.6,267.01,232.7,271.73z"/>
<path class="st4" d="M199.57,247.05"/>
<path class="st5" d="M197.7,272.77l-3.53-4.35l-0.01,0.78c0,0-0.72,0.18-0.88,0.23C193.12,269.48,197.7,272.77,197.7,272.77z"/>
<polygon class="st5" points="207.35,269.21 205.9,263.26 206.67,263.63 207.28,262.84 "/>
<polygon class="st5" points="219.02,269.92 220.8,262.29 221.54,262.95 222.32,262.96 "/>
<path class="st6" d="M228.1,252"/>
<path class="st6" d="M228.1,252"/>
<path class="st7" d="M161.87,290.67"/>
<path class="st3" d="M193.28,269.44"/>
</svg>
