<?xml version="1.0" encoding="utf-8"?>
<!-- Generator: Adobe Illustrator 23.0.2, SVG Export Plug-In . SVG Version: 6.00 Build 0)  -->
<svg version="1.1" id="Calque_1" xmlns="http://www.w3.org/2000/svg" xmlns:xlink="http://www.w3.org/1999/xlink" x="0px" y="0px"
	 viewBox="0 0 345.96 350.11" style="enable-background:new 0 0 345.96 350.11;" xml:space="preserve">
<style type="text/css">
	.st0{fill:#E30613;}
	.st1{fill:#EFD830;}
	.st2{fill:#EFBA95;}
	.st3{fill:#E52321;}
	.st4{fill:#BB1818;}
	.st5{fill:#FEF8FB;}
	.st6{fill:#EEE6EA;}
</style>
<g>
	<g>
		<path class="st0" d="M327.2,219.12c-0.57,0-5.16,0-5.16,0s-3.19-1.76-0.67-4.02c16.88-15.07,17.33-36.04,17.88-38.73
			c-3.16,4.4-23.9,24.76-24.57,25.24s-8.7,3.25-5.64-4.78s14.34-11.28,13.1-11.76c-1.24-0.48-5.45,0-5.45,0s-3.25-3.54,0.1-7.91
			c25.05-22.25,10.04-32.25,10.04-32.25c-7.84,26.77-16.35,13.58-16.35,13.58s-2.2-3.82,9.47-22.66
			c11.67-18.84,4.97-27.73,4.97-27.73c-1.24,13.48-10.61,9.37-10.61,9.37s-1.34,17.98-6.79,12.33c0.57-17.31-7.08-16.16-7.08-16.16
			s0.57,10.52-12.14-2.96c2.39-8.22-2.49-15.59-2.49-15.59s1.53,9.18-2.1,8.8c-8.89-10.14-5.45-22.47-5.45-22.47
			s-20.18-0.38-15.87-12.33c10.59-8.86,5.26-23.04,5.26-22.28s-2.1,5.07-2.1,5.07s-8.03,11-8.41,2.68c3.25-8.8,0.1-13.48,0.1-13.48
			s-4.21-14.44-3.35-19.41c0.54-3.11,3.85-10.84,6.26-16.09c-1.49,1.59-3.85,3.35-7.59,5c-10.23,4.49-11.38,13.29-11.38,13.29
			s-2.96-5.64,1.34-19.12c-15.2,20.84-7.79,27.35-7.79,27.35c0.29,0.93,3.16,5.45,3.44,10.18c0.29,4.73,1.15,3.73-6.02,2.01
			c-7.17-1.72-7.6-10.52-9.04-13.2c-1,2.58,0.86,4.45,2.87,16.49c2.01,12.05-3.72,15.95-5.74,13.63c-1.99-2.3-0.51-6.09,0.01-7.19
			c0,0.01,0,0.01-0.01,0.01c-1.43,2.63-3.01-0.29-3.68,4.3c-0.67,4.59-2.05,0.43-2.05,0.43c-1.43-1.43,0.67-6.74,0.86-12.91
			c-2.87,2.87-6.31,13.2-6.31,13.2s-3.26,4-3.44-1.15c0-14.89,9.75-26.92,10.84-28.08c-1.09,0.37-8.55-19.25-8.55-19.25
			s0,4.88,0,8.32c0,3.44-1.72,6.88-1.72,8.32s-13.2,11.47-13.2,11.47v-7.17c-2.87,4.3-9.47,5.74-8.89,4.02
			c0.57-1.72,1.15-12.05,1.15-12.05s-8.89,13.2-14.34,12.05s1.43-16.64,1.43-16.64s-9.41,6.61-13.2,16.06
			c-4.02,16.35,1.72,17.21,1.72,17.21s-3.73,0.57-4.88-0.86s-3.73,0-3.73,0v6.31c0,0-4.88,5.74-7.17,4.3
			c-2.29-1.43,2.01-8.61,2.01-8.61c-2.44,1.86-6.31-0.72-6.31-0.72s2.24-17.5,5.02-23.24c-4.3,0-19.08,18.79-20.94,27.68
			c-1.86,8.89-5.45,4.59-5.45,4.59s-0.57-4.45,0.86-11.19c-5.74,13.2-10.9,9.9-10.9,9.9s-2.58-8.75-2.01-17.35
			C98,53.46,100.01,56.9,103.6,69.38c3.59,12.48-4.3,11.19-4.3,11.19s-1.58-4.88-5.02-7.6c-3.44-2.73-0.43-15.2-1-13.48
			c-0.57,1.72-3.44,1.58-7.75,10.47c-0.57,12.91-3.16,15.63-5.02,15.49c-1.86-0.14-0.43-21.8-1.29-21.51
			c-0.86,0.29-6.17,9.61-9.04,17.64s-1,20.37,8.32,34.71c2.29,25.1-7.6,20.37-7.6,20.37s-1.15,0.57-0.57-6.31
			c0.57-6.88-5.02-16.06-4.02-13.34s-4.73,8.61-5.74,8.18c-1-0.43-1.43-9.47-1.43-9.47c0.86-3.73-4.16-17.21-11.91-21.08
			c7.17,15.35,4.3,35.43,4.3,35.43s-3.87-5.45-5.88-5.45c5.02,16.06-0.86,14.2-0.86,14.2s-4.3-6.31-7.31-11.19
			c-2.29,23.67,15.06,39.44,15.06,41.59c0,2.15-10.18-0.14-9.32,0.29c0.86,0.43,0.43,1.58,0.72,3.06c0.29,1.48-9.9-1.62-11.47-1.62
			c-1.58,0-8.89-3.59-13.63-8.46c0.29,6.31,8.46,9.47,10.18,11.33c1.72,1.86-0.86,2.58-0.86,2.58s-13.85-1.6-20.8-16.49
			c3.01,17.64,14.63,19.65,16.78,19.65c2.15,0,18.65,5.31,20.51,11.76c1.86,6.45-11.62,4.45-11.62,4.45s5.45,7.03,26.39,9.18
			c20.94,2.15,13.2,9.9,13.2,9.9s-8.89-1.15-13.2,1.43c6.74,0.72,21.94,7.17,22.52,9.18c0.57,2.01-1,4.16-1,4.16
			c3.59,3.87,0.43,6.6,0.43,6.6s-5.16,0.89-6.74,2.15c16.21,14.06,4.02,17.35,4.02,17.35s-4.59,3.87-16.78-18.62
			C59.13,273.97,92.7,279.5,92.7,279.5s21.46-14.29,28.34-12.57c-2.01,11.19-9.84,55.03-0.52,54.31
			c3.01-24.67,20.51-22.66,20.51-22.66l-0.72,4.73c2.87-1.43,10.47-1.29,10.47-1.29s1.72,11.9-8.61,11.76
			c-18.94-0.26-12.1,30.26-9.04,30.98c1.29-18.93-1.86-21.66,16.06-20.94c17.93,0.72,15.35-16.21,15.35-16.21s4.16-13.48,12.05-10.9
			c1.43,15.06,9.04,12.76,11.62,12.76s10.47-6.6,10.47-6.6s-1.97,4.01-0.43,6.6c4.73-2.01,10.47-0.14,10.47-0.14
			s10.61,4.59,13.63,21.08c3.59-7.89,0.14-16.21,0.14-16.21s-3.16-2.58,3.87-0.14c9.35,3.25,11.04,22.23,11.04,22.23
			s0.29-7.75-0.29-17.35c12.48-0.14,26.82-6.02,26.82-6.02c-32.13-7.46-26.96-16.49-26.96-16.49s8.89,4.73,28.4,5.02
			c-25.24-5.74-23.24-15.78-22.52-14.49c0.72,1.29,4.16,1.14,6.6,1c5.16-0.29,7.6-12.76,7.6-12.76s-15.25,2.73-7.03-8.18
			c12.76-0.57,15.35,7.03,15.35,5.88c0-1.15-0.29-4.02,4.16-4.59c4.45-0.57,6.6,0.86,6.6,0.86s-0.72-2.87-0.14-2.87
			c0.57,0,5.74,0,14.2,2.87c0.29-2.87-16.78-8.03-17.78-8.89c-1-0.86,0-4.59,0-4.59s11.76,0.89,19.79-1.15
			c-7.46-3.44-0.43-8.46-0.43-8.46s23.95-1.29,25.1-1.29s4.02-4.02,4.02-4.02s-12.19-1.72-15.35-2.01c-3.16-0.29-11.76-8.46-1-10.04
			s21.51-5.02,22.09-5.02C327.2,223.71,327.77,219.12,327.2,219.12z"/>
	</g>
</g>
<path class="st0" d="M283.2,184.32"/>
<path class="st1" d="M177.21,213.59c0,0,7.75,21.32,13.91,20.47c6.16-0.86,11.8-17.67,11.8-17.67s-4.82,16.29,0.01,18.46
	c4.83,2.17,16.92-11.75,16.92-11.75s-10.03,13.23-8.83,16.06c1.2,2.83,23.36-7.63,23.36-7.63s-14.46,7.72-12.78,12.28
	c1.68,4.56,25.77,1.72,25.77,1.72s-19.99,2.68-27.53,8.87s11.28,9.98,11.28,9.98s-16.61-3.5-22.29-0.91
	c-5.68,2.59,4.68,14.71,4.68,14.71s-12.54-10.5-15.7-9.33c-3.16,1.16-4.92,16.68-4.92,16.68s-0.45-10.89-6.1-10.07
	c-5.65,0.82-23.01,22.6-23.01,22.6s13.32-17.78,10.12-23.46c-3.19-5.68-21.19,6-21.19,6s16.13-11.77,13.98-14.37
	c-2.15-2.6-31.26,3.78-31.26,3.78s25.07-8.53,26.99-13.22c1.92-4.68-14.91-6.86-14.91-6.86s17.84-0.37,23.02-2.91
	c5.18-2.55-8.19-12.52-8.19-12.52s13.33,4.36,16.71,3.11S177.21,213.59,177.21,213.59z"/>
<path class="st2" d="M181.71,308.59l-1.29-47.1l23.95,0.13l-0.79,46.9c0,0-1.92,0.26-5.89,1.31c-1.23-1.79-0.17-3.25,0.29-4.85
	c-4.44,2.43-8.24,4.76-9.39,4.69C187.65,309.6,183.93,310.42,181.71,308.59z"/>
<path class="st3" d="M201,290.54c0,0,2.12,1.3,3.02-3.45c0.9-4.75-0.77-11.62-0.77-11.62s-22.53,0.23-23.78-0.4s0.85,7.05,0.26,8.98
	c-0.6,1.92-0.46,5.57,0.25,5.84C180.68,290.16,185.57,292.78,201,290.54z"/>
<path class="st3" d="M172.35,249.2c0,0-6.13,3.28-5.52,9.19s6.51,16.59,13.52,16.67C178.64,269.4,172,250.09,172.35,249.2z"/>
<path class="st4" d="M171.87,250.05c-1.2,1.29,2.21,19.77,2.48,20.47c1.21,3.06,5.61,5.08,5.61,5.08S174.5,251.33,171.87,250.05z"/>
<path class="st3" d="M205.09,266.85c-0.07-1.28,6.64-18.34,1.08-27.13c-4.16-7.16-30.15-5.71-32.84-0.65
	c-2.13,4-2.23,4.95-2.02,8.85s4.58,23.4,7.93,25.45c0.55,3.01,0.55,3.01,0.55,3.01s18.54,0.84,23.33-0.91
	C204.38,271.88,205.09,266.85,205.09,266.85z"/>
<path class="st4" d="M203.76,237.46c0,0,3.79,16.65-2.83,30.18c-0.51,0.49,1.75,0.74,1.75,0.74s1.83,4.61-1.09,7.12
	c-0.33,1.37,1.52,1.81,2.42-0.11s1.23-9.11,1.61-10.11S214.55,242.61,203.76,237.46z"/>
<path class="st4" d="M201.01,275.47l0.09,15.21c0,0,1.93-0.01,2.77-1.64c1.59-2.31,0.07-12.86-0.67-13.34
	C202.64,275.34,201.01,275.47,201.01,275.47z"/>
<path class="st5" d="M173.73,240.59c0,0,12.46-5.29,27.56-0.36C198.41,236.24,178.01,235.12,173.73,240.59z"/>
<path class="st5" d="M175.8,257.43l10.2,9.78C186,267.21,178.88,264.84,175.8,257.43z"/>
<path class="st5" d="M177.78,264.61c0,0,3.84,7.45,11.72,6.73C182.72,271.21,177.78,264.61,177.78,264.61z"/>
<path class="st6" d="M183.58,279.82l0.03,8.32c0,0,9.23,1.13,15.76,0.12c0.41-2.2-0.07-8.69-0.07-8.69L183.58,279.82z"/>
<path class="st5" d="M170.45,253.18c0,0-1.22,5.53-1.45,5.96S166.2,255.89,170.45,253.18z"/>
<path class="st3" d="M212.12,292.06"/>
</svg>
